# xmcd CD database file
# Copyright 1993-1996 (C) Ti Kan
#
# Track frame offsets:
#    150
#    13115
#    27655
#    40155
#    50645
#    61382
#    73367
#    87677
#    99782
#    108917
#    120387
#    130075
#    145890
#    155537
#    169777
#    186272
#    198002
#    210187
#    222715
#    234837
#
# Disc length: 3305 seconds
#
# Revision: 0
# Processed by: cddbd v1.4b41PL1 Copyright (c) Steve Scherf et al.
# Submitted via: MyCDplayer 2.3.9a  (wjohn@fix.net)
#
DISCID=1e0ce714
DTITLE=Various Artist - 
DTITLE=I Fall to Pieces: 20 Country Classics
DYEAR=1900
DGENRE=
TTITLE0=It's Four in the Morning: Faron Young
TTITLE1=Harper Valley PTA: Jeannie C. Riley
TTITLE2=The Auctioneer: Leroy Van Dyke
TTITLE3=Before the Next Teardrop Falls: Freddy Fender
TTITLE4=Please Help Me I'm Falling: Hank Locklin
TTITLE5=The End of the World: Skeeter Davis
TTITLE6=A Good Year for the Roses: George Jones
TTITLE7=Jambalaya (On The Bayou): Jimmy C. Newman
TTITLE8=Honky Tong Song: Webb Pierce
TTITLE9=Nightlife: Willie Nelson
TTITLE10=From a Jack to a King: Ned Miller
TTITLE11=C.B. Savage: Rod Hart
TTITLE12=6 Days on the Road: Dave Dudley
TTITLE13=Angel of the Morning: Rita Remington
TTITLE14=You Are My Sunshine: Jimmy Davis
TTITLE15=Got You on my Mind: David Allan Coe
TTITLE16=I Walk the Line: Johnny Cash
TTITLE17=Dreaming: Randy Travis
TTITLE18=Born to Lose: Jerry Lee Lewis
TTITLE19=I Fall to Pieces: Wanda Jackson
EXTD=
EXTT0=
EXTT1=
EXTT2=
EXTT3=
EXTT4=
EXTT5=
EXTT6=
EXTT7=
EXTT8=
EXTT9=
EXTT10=
EXTT11=
EXTT12=
EXTT13=
EXTT14=
EXTT15=
EXTT16=
EXTT17=
EXTT18=
EXTT19=
PLAYORDER=
